<svg xmlns="http://www.w3.org/2000/svg" width="124.008" height="124.011" viewBox="0 0 124.008 124.011">
  <g id="Group_105" data-name="Group 105" transform="translate(0.5 0.5)">
    <path id="Path_92" data-name="Path 92" d="M552.312,315.761c-1.87-.546-3.74-1.232-4.774-2.962a17.014,17.014,0,0,1-1.65-4.285,1.424,1.424,0,0,0-.9-1.18c-7.68-3.178-15.348-6.388-23.038-9.545a1.563,1.563,0,0,0-1.316.237,7.713,7.713,0,0,1-10.869-10.918,1.558,1.558,0,0,0,.238-1.316q-4.754-11.592-9.62-23.137a1.436,1.436,0,0,0-1.019-.695,7.715,7.715,0,0,1,.051-15.416,1.432,1.432,0,0,0,1-.723c3.238-7.7,6.419-15.423,9.665-23.119.328-.777-.1-1.086-.468-1.532a7.665,7.665,0,0,1,4.125-12.438,7.256,7.256,0,0,1,6.811,1.742,1.267,1.267,0,0,0,1.578.25c7.625-3.2,15.263-6.38,22.883-9.6a1.459,1.459,0,0,0,.8-.948,7.685,7.685,0,0,1,5.995-7.228c.1-.029.185-.133.277-.2h2.643a.944.944,0,0,0,.209.116,7.716,7.716,0,0,1,6.3,7.469,1.215,1.215,0,0,0,.67.8q11.546,4.843,23.127,9.606a1.557,1.557,0,0,0,1.319-.212,7.763,7.763,0,0,1,10.658.246c2.888,2.88,2.962,7.32.235,10.663a1.567,1.567,0,0,0-.21,1.325c3.156,7.686,6.368,15.348,9.534,23.029a1.164,1.164,0,0,0,1.24.811,6.422,6.422,0,0,1,4.884,2.226,27.561,27.561,0,0,1,2.338,4.229v2.4c-.073.182-.16.36-.216.547a7.737,7.737,0,0,1-7.125,5.964,1.593,1.593,0,0,0-1.031.864c-3.206,7.622-6.364,15.264-9.558,22.891a1.284,1.284,0,0,0,.259,1.564,7.657,7.657,0,0,1-10.883,10.734,1.286,1.286,0,0,0-1.576-.271q-11.43,4.813-22.888,9.558a1.161,1.161,0,0,0-.834,1.222,7.493,7.493,0,0,1-2.016,4.76,9.163,9.163,0,0,1-4.436,2.47Zm7.03-12.9c.333-.134.556-.221.777-.313,7.635-3.185,15.275-6.361,22.893-9.587a1.749,1.749,0,0,0,.867-1.178c.582-4.181,3.083-6.63,7.312-7.163a1.735,1.735,0,0,0,1.164-.886c3.2-7.588,6.332-15.2,9.509-22.8a1.272,1.272,0,0,0-.237-1.575,7.5,7.5,0,0,1-.117-10.077,1.4,1.4,0,0,0,.282-1.689q-4.756-11.333-9.439-22.7a1.536,1.536,0,0,0-1.476-1.089,7.451,7.451,0,0,1-6.925-6.926,1.54,1.54,0,0,0-1.088-1.475q-11.364-4.682-22.7-9.432a1.311,1.311,0,0,0-1.6.207,7.5,7.5,0,0,1-10.171-.043,1.222,1.222,0,0,0-1.484-.23q-11.441,4.809-22.907,9.555a1.278,1.278,0,0,0-.908,1.209c-.486,4.181-2.976,6.7-7.1,7.153a1.365,1.365,0,0,0-1.285.987q-4.714,11.415-9.483,22.808a1.312,1.312,0,0,0,.219,1.594,7.5,7.5,0,0,1,0,10.081,1.314,1.314,0,0,0-.251,1.589q4.776,11.39,9.489,22.806a1.365,1.365,0,0,0,1.277,1c4.133.45,6.638,3.014,7.164,7.125a1.74,1.74,0,0,0,.841,1.2q11.486,4.853,23.024,9.581a1.591,1.591,0,0,0,1.334-.231,7.694,7.694,0,0,1,10.312,0C558.882,302.546,559.138,302.711,559.341,302.858ZM553.494,203a2.56,2.56,0,1,0-2.541-2.638A2.611,2.611,0,0,0,553.494,203ZM499.74,256.815a2.561,2.561,0,1,0-2.6-2.455A2.61,2.61,0,0,0,499.74,256.815Zm110.148-2.557a2.559,2.559,0,1,0-2.623,2.557A2.612,2.612,0,0,0,609.889,254.258Zm-56.321,56.374a2.561,2.561,0,1,0-2.611-2.445A2.61,2.61,0,0,0,553.567,310.633Zm38.03-91.9a2.519,2.519,0,0,0,2.516-2.5,2.556,2.556,0,0,0-2.576-2.576,2.52,2.52,0,0,0-2.5,2.516A2.485,2.485,0,0,0,591.6,218.733Zm-2.56,73.607a2.523,2.523,0,0,0,2.5,2.516,2.555,2.555,0,0,0,2.576-2.576,2.513,2.513,0,0,0-2.515-2.5A2.488,2.488,0,0,0,589.038,292.339Zm-71.055-.038a2.474,2.474,0,0,0-2.478-2.519,2.52,2.52,0,0,0-2.6,2.535,2.561,2.561,0,0,0,2.494,2.538A2.524,2.524,0,0,0,517.983,292.3Zm0-76.1a2.519,2.519,0,0,0-2.473-2.542,2.564,2.564,0,0,0-2.607,2.545,2.528,2.528,0,0,0,2.491,2.527A2.482,2.482,0,0,0,517.987,216.2Z" transform="translate(-492.011 -192.75)" fill="#fff" stroke="rgba(0,0,0,0)" stroke-width="1"/>
    <path id="Path_93" data-name="Path 93" d="M607.894,344.532a35.855,35.855,0,1,1,35.889-35.761A35.855,35.855,0,0,1,607.894,344.532Zm-30.715-35.947a30.752,30.752,0,1,0,30.9-30.659A30.805,30.805,0,0,0,577.179,308.585Z" transform="translate(-546.429 -247.171)" fill="#fff" stroke="rgba(0,0,0,0)" stroke-width="1"/>
    <path id="Path_94" data-name="Path 94" d="M643.288,357.315H633.076c0,2.261,0,4.452,0,6.643,0,2.335-.92,3.573-2.623,3.546-1.66-.027-2.541-1.238-2.541-3.506,0-5.56-.035-11.12.009-16.679a10.248,10.248,0,1,1,20.492-.422c.137,5.917.052,11.839.028,17.758a2.587,2.587,0,1,1-5.144-.034C643.265,362.225,643.288,359.828,643.288,357.315Zm-.045-5.234c0-1.981.1-3.86-.024-5.725a5.072,5.072,0,0,0-10.036-.272c-.185,1.965-.038,3.961-.038,6Z" transform="translate(-584.367 -290.631)" fill="#fff" stroke="rgba(0,0,0,0)" stroke-width="1"/>
    <path id="Path_95" data-name="Path 95" d="M723.936,351.928q0-6.177,0-12.355a2.647,2.647,0,0,1,1.519-2.639,2.123,2.123,0,0,1,2.653.391,4.412,4.412,0,0,1,.947,2.45c.117,2.714.044,5.436.044,8.154q0,8.037-.006,16.073a6.488,6.488,0,0,1-.148,1.542,2.508,2.508,0,0,1-4.847.038,6.278,6.278,0,0,1-.157-1.541C723.93,360,723.936,355.966,723.936,351.928Z" transform="translate(-649.64 -290.553)" fill="#fff" stroke="rgba(0,0,0,0)" stroke-width="1"/>
  </g>
</svg>
