<svg xmlns="http://www.w3.org/2000/svg" xmlns:xlink="http://www.w3.org/1999/xlink" width="102.875" height="102.753" viewBox="0 0 102.875 102.753">
  <defs>
    <linearGradient id="linear-gradient" x1="0.969" y1="0.036" x2="0.067" y2="1" gradientUnits="objectBoundingBox">
      <stop offset="0" stop-color="#73f7b1"/>
      <stop offset="1" stop-color="#295db5"/>
    </linearGradient>
  </defs>
  <g id="Group_118" data-name="Group 118" transform="translate(-509.551 -210.443)">
    <path id="Path_101" data-name="Path 101" d="M529.381,277.89c5.192-2.859,10.478-5.761,15.744-8.7a1.275,1.275,0,0,0,.547-.931q.054-6.423,0-12.846a1.39,1.39,0,0,0-.63-.991q-7.563-4.226-15.177-8.36a1.36,1.36,0,0,0-1.118.066c-2.609,1.474-5.158,3.059-7.807,4.457a2.806,2.806,0,0,1-2.26-.022c-2.526-1.317-4.961-2.809-7.432-4.233a2.242,2.242,0,0,1-1.189-2.078q0-4.227,0-8.455a2.307,2.307,0,0,1,1.276-2.139q3.62-2.065,7.218-4.168a2.35,2.35,0,0,1,2.581.012q3.547,2.082,7.126,4.107a2.394,2.394,0,0,1,1.339,2.322c-.035,1.427-.058,2.857.023,4.28a1.636,1.636,0,0,0,.662,1.169q8.418,4.719,16.9,9.329a1.538,1.538,0,0,0,1.258.013q4.87-2.637,9.673-5.4a1.616,1.616,0,0,0,.7-1.156q.079-5.763,0-11.528a1.65,1.65,0,0,0-.718-1.149c-1.8-1.116-3.643-2.171-5.5-3.2a2.44,2.44,0,0,1-1.373-2.31q.01-4.172,0-8.345a2.288,2.288,0,0,1,1.257-2.145q3.623-2.061,7.218-4.169a2.35,2.35,0,0,1,2.583.008q3.6,2.1,7.217,4.17a2.293,2.293,0,0,1,1.237,2.159q-.018,4.227-.02,8.454a2.3,2.3,0,0,1-1.28,2.135c-1.843,1.049-3.66,2.144-5.516,3.17a1.346,1.346,0,0,0-.816,1.361q.052,5.654,0,11.309a1.261,1.261,0,0,0,.752,1.288c3.208,1.753,6.383,3.566,9.6,5.3a1.652,1.652,0,0,0,1.351.009c5.62-3.055,11.211-6.166,16.823-9.235a1.231,1.231,0,0,0,.755-1.28c-.045-1.463,0-2.928-.017-4.392a2.2,2.2,0,0,1,1.178-2.074q3.706-2.135,7.406-4.281a2.232,2.232,0,0,1,2.392.023q3.652,2.119,7.313,4.225a2.314,2.314,0,0,1,1.248,2.157c0,2.818.062,5.639-.049,8.453a2.677,2.677,0,0,1-1.018,1.9c-2.532,1.6-5.137,3.09-7.781,4.5a2.425,2.425,0,0,1-1.97-.054c-2.639-1.418-5.2-2.982-7.814-4.447a1.485,1.485,0,0,0-1.208-.1q-7.615,4.131-15.172,8.368a1.385,1.385,0,0,0-.6,1.005q-.062,6.368,0,12.736a1.5,1.5,0,0,0,.675,1.066q7.508,4.211,15.072,8.322a1.365,1.365,0,0,0,1.129-.021c2.58-1.452,5.125-2.967,7.692-4.443a2.4,2.4,0,0,1,2.6.019c2.36,1.4,4.741,2.757,7.124,4.113a2.455,2.455,0,0,1,1.33,2.337q-.028,4.063,0,8.125a2.449,2.449,0,0,1-1.336,2.332q-3.577,2.03-7.123,4.113a2.424,2.424,0,0,1-2.68-.019q-3.5-2.062-7.032-4.052a2.463,2.463,0,0,1-1.377-2.413c.037-1.426.053-2.857-.02-4.281a1.525,1.525,0,0,0-.623-1.091q-8.47-4.74-16.994-9.379a1.426,1.426,0,0,0-1.167,0q-4.914,2.67-9.768,5.45a1.5,1.5,0,0,0-.643,1.086q-.07,5.763,0,11.528a1.641,1.641,0,0,0,.688,1.161c1.8,1.118,3.642,2.174,5.5,3.2a2.52,2.52,0,0,1,1.4,2.409q-.018,4.063,0,8.125a2.426,2.426,0,0,1-1.325,2.332q-3.533,2-7.023,4.068a2.555,2.555,0,0,1-2.874-.038q-3.385-2.031-6.839-3.947a2.56,2.56,0,0,1-1.464-2.477c.031-2.671.02-5.343.005-8.015a2.569,2.569,0,0,1,1.461-2.484c1.829-1,3.6-2.1,5.425-3.1a1.275,1.275,0,0,0,.749-1.292c-.027-3.806.007-7.613-.045-11.419a1.615,1.615,0,0,0-.7-1.161q-4.8-2.765-9.672-5.4a1.539,1.539,0,0,0-1.259,0q-8.476,4.614-16.9,9.328a1.63,1.63,0,0,0-.669,1.163c-.08,1.46-.047,2.926-.027,4.39a2.27,2.27,0,0,1-1.232,2.158q-3.663,2.1-7.313,4.224a2.3,2.3,0,0,1-2.487-.031q-3.6-2.1-7.219-4.168a2.377,2.377,0,0,1-1.291-2.244q.016-4.118,0-8.235a2.446,2.446,0,0,1,1.371-2.311q3.484-1.971,6.935-4a2.682,2.682,0,0,1,2.986.009C523.947,274.78,526.585,276.274,529.381,277.89ZM596.754,240c-.95,2.588.577,3.669,2.577,4.878a4.7,4.7,0,0,0,5.557.062,4.91,4.91,0,0,0,2.883-4.994,4.74,4.74,0,0,0-2.74-4.744c-2.111-1.22-3.634-1.371-5.746-.01C597.376,236.418,595.843,237.446,596.754,240Zm-.158,43.229c0,3.6,0,3.6,2.726,5.167a.579.579,0,0,1,.1.051c1.819,1.61,3.44,1.262,5.5.085a4.791,4.791,0,0,0,2.849-4.9A4.882,4.882,0,0,0,605,278.8a4.79,4.79,0,0,0-5.749.041C597.263,280.05,595.868,281.155,596.6,283.225Zm-82.138-43.242c-.858,2.5.473,3.636,2.484,4.847a4.785,4.785,0,0,0,5.75.04,5.608,5.608,0,0,0-.041-9.721c-2.111-1.225-3.588-1.256-5.65.032C515.06,236.395,513.567,237.453,514.458,239.983Zm10.76,43.663c.94-2.6-.623-3.647-2.6-4.874-2.087-1.3-3.569-1.174-5.652.037a5.619,5.619,0,1,0,5.748,9.656C524.691,287.254,526.1,286.16,525.218,283.646Zm41.12-61.764c.914-2.556-.553-3.651-2.549-4.89-2.087-1.3-3.562-1.191-5.649.012a5.64,5.64,0,0,0,.037,9.735,4.757,4.757,0,0,0,5.651-.032C565.81,225.489,567.205,224.4,566.338,221.882Zm0,79.949c.924-2.56-.564-3.648-2.547-4.89-2.084-1.3-3.56-1.191-5.649.009a5.645,5.645,0,0,0,.034,9.738,4.739,4.739,0,0,0,5.649-.036C565.806,305.445,567.212,304.352,566.337,301.831Zm-7.7-28.1c.1-.159.17-.215.171-.272.014-3.616.038-7.232,0-10.848a1.314,1.314,0,0,0-.636-.871c-1.571-.927-3.174-1.8-4.769-2.684-1.1-.611-2.208-1.214-3.338-1.835a2.022,2.022,0,0,0-.088.339c-.006,2.521-.018,5.042-.01,7.562,0,1.239-.364,2.714.181,3.649s2.007,1.331,3.081,1.94C555.032,271.733,556.841,272.731,558.641,273.735Zm4.484.114c2.534-1.409,4.807-2.789,7.187-3.951a2.688,2.688,0,0,0,1.726-2.934c-.124-3.2-.038-6.4-.038-9.8-2.947,1.639-5.745,3.183-8.522,4.762a.96.96,0,0,0-.337.724C563.119,266.3,563.125,269.947,563.125,273.849Zm6.573-20.271a4.949,4.949,0,0,0-.454-.348c-2.577-1.445-5.147-2.905-7.75-4.3a1.451,1.451,0,0,0-1.164.085c-1.933,1.026-3.836,2.109-5.745,3.178-.749.42-1.488.856-2.354,1.355,2.87,1.6,5.57,3.123,8.293,4.6a1.207,1.207,0,0,0,.986-.028C564.2,256.656,566.871,255.153,569.7,253.578Z" transform="translate(0 0)" stroke="rgba(0,0,0,0)" stroke-width="1" fill="url(#linear-gradient)"/>
    <path id="Path_102" data-name="Path 102" d="M630.695,261.7a2.121,2.121,0,1,1,.04-4.241,2.121,2.121,0,0,1-.04,4.241Z" transform="translate(-83.814 -32.897)" stroke="rgba(0,0,0,0)" stroke-width="1" fill="url(#linear-gradient)"/>
    <path id="Path_103" data-name="Path 103" d="M538.452,355.4a2.106,2.106,0,0,1-.164,4.209,2.106,2.106,0,1,1,.164-4.209Z" transform="translate(-18.537 -102.158)" stroke="rgba(0,0,0,0)" stroke-width="1" fill="url(#linear-gradient)"/>
    <path id="Path_104" data-name="Path 104" d="M819.6,355.395a2.106,2.106,0,1,1-2.166,2.085A2.056,2.056,0,0,1,819.6,355.395Z" transform="translate(-217.38 -102.156)" stroke="rgba(0,0,0,0)" stroke-width="1" fill="url(#linear-gradient)"/>
    <path id="Path_105" data-name="Path 105" d="M819.5,377.551a2.1,2.1,0,1,1,.013,4.2,2.1,2.1,0,0,1-.013-4.2Z" transform="translate(-217.384 -117.826)" stroke="rgba(0,0,0,0)" stroke-width="1" fill="url(#linear-gradient)"/>
    <path id="Path_106" data-name="Path 106" d="M540.461,401.926a2.055,2.055,0,0,1-2.146,1.995,2.106,2.106,0,1,1,2.146-1.995Z" transform="translate(-18.537 -133.496)" stroke="rgba(0,0,0,0)" stroke-width="1" fill="url(#linear-gradient)"/>
    <path id="Path_107" data-name="Path 107" d="M819.493,403.932a2.093,2.093,0,0,1,.01-4.185,2.093,2.093,0,1,1-.01,4.185Z" transform="translate(-217.378 -133.522)" stroke="rgba(0,0,0,0)" stroke-width="1" fill="url(#linear-gradient)"/>
    <path id="Path_108" data-name="Path 108" d="M771.243,475.778a2.118,2.118,0,1,1-.052,4.235,2.118,2.118,0,0,1,.052-4.235Z" transform="translate(-183.227 -187.291)" stroke="rgba(0,0,0,0)" stroke-width="1" fill="url(#linear-gradient)"/>
    <path id="Path_109" data-name="Path 109" d="M751.216,488.758A2.063,2.063,0,0,1,749.2,490.9a2.1,2.1,0,1,1-.1-4.2A2.071,2.071,0,0,1,751.216,488.758Z" transform="translate(-167.576 -195.018)" stroke="rgba(0,0,0,0)" stroke-width="1" fill="url(#linear-gradient)"/>
    <path id="Path_110" data-name="Path 110" d="M727.078,261.694a2.114,2.114,0,1,1,.155-4.225,2.114,2.114,0,0,1-.155,4.225Z" transform="translate(-152.035 -32.902)" stroke="rgba(0,0,0,0)" stroke-width="1" fill="url(#linear-gradient)"/>
    <path id="Path_111" data-name="Path 111" d="M751.217,270.568a2.068,2.068,0,0,1-2.109,2.059,2.1,2.1,0,1,1,.086-4.2A2.059,2.059,0,0,1,751.217,270.568Z" transform="translate(-167.577 -40.654)" stroke="rgba(0,0,0,0)" stroke-width="1" fill="url(#linear-gradient)"/>
    <path id="Path_112" data-name="Path 112" d="M771.219,283.469a2.1,2.1,0,0,1-2.08-2.1,2.127,2.127,0,0,1,2.073-2.12,2.164,2.164,0,0,1,2.151,2.165A2.141,2.141,0,0,1,771.219,283.469Z" transform="translate(-183.226 -48.305)" stroke="rgba(0,0,0,0)" stroke-width="1" fill="url(#linear-gradient)"/>
    <path id="Path_113" data-name="Path 113" d="M586.478,475.683a2.114,2.114,0,0,1,2.1,2.091,2.082,2.082,0,0,1-2.035,2.143,2.15,2.15,0,0,1-2.182-2.131A2.194,2.194,0,0,1,586.478,475.683Z" transform="translate(-52.551 -187.224)" stroke="rgba(0,0,0,0)" stroke-width="1" fill="url(#linear-gradient)"/>
    <path id="Path_114" data-name="Path 114" d="M632.777,499.637a2.1,2.1,0,0,1-2.074,2.112,2.121,2.121,0,1,1,.021-4.242A2.092,2.092,0,0,1,632.777,499.637Z" transform="translate(-83.814 -202.657)" stroke="rgba(0,0,0,0)" stroke-width="1" fill="url(#linear-gradient)"/>
    <path id="Path_115" data-name="Path 115" d="M727.095,497.543a2.116,2.116,0,0,1,.128,4.229,2.116,2.116,0,1,1-.128-4.229Z" transform="translate(-152.038 -202.683)" stroke="rgba(0,0,0,0)" stroke-width="1" fill="url(#linear-gradient)"/>
    <path id="Path_116" data-name="Path 116" d="M608.618,272.655a2.1,2.1,0,0,1,.044-4.2,2.1,2.1,0,1,1-.044,4.2Z" transform="translate(-68.26 -40.673)" stroke="rgba(0,0,0,0)" stroke-width="1" fill="url(#linear-gradient)"/>
    <path id="Path_117" data-name="Path 117" d="M586.455,283.533a2.193,2.193,0,0,1-2.094-2.128,2.162,2.162,0,0,1,2.206-2.113,2.122,2.122,0,0,1-.113,4.241Z" transform="translate(-52.552 -48.336)" stroke="rgba(0,0,0,0)" stroke-width="1" fill="url(#linear-gradient)"/>
    <path id="Path_118" data-name="Path 118" d="M540.466,379.7a2.076,2.076,0,0,1-2.1,2.064,2.1,2.1,0,1,1,.076-4.2A2.077,2.077,0,0,1,540.466,379.7Z" transform="translate(-18.54 -117.83)" stroke="rgba(0,0,0,0)" stroke-width="1" fill="url(#linear-gradient)"/>
    <path id="Path_119" data-name="Path 119" d="M610.786,488.814a2.1,2.1,0,0,1-2.115,2.07,2.1,2.1,0,1,1,.058-4.2A2.1,2.1,0,0,1,610.786,488.814Z" transform="translate(-68.264 -195.003)" stroke="rgba(0,0,0,0)" stroke-width="1" fill="url(#linear-gradient)"/>
  </g>
</svg>
