<svg width="11" height="24" viewBox="0 0 11 24" fill="none" xmlns="http://www.w3.org/2000/svg">
<path d="M0 3.91667C0 2.8779 0.413902 1.88168 1.15065 1.14717C1.8874 0.412648 2.88665 0 3.92857 0C4.97049 0 5.96974 0.412648 6.70649 1.14717C7.44324 1.88168 7.85714 2.8779 7.85714 3.91667V18.0167C7.85714 18.6399 7.6088 19.2377 7.16675 19.6784C6.7247 20.1191 6.12515 20.3667 5.5 20.3667C4.87485 20.3667 4.2753 20.1191 3.83325 19.6784C3.3912 19.2377 3.14286 18.6399 3.14286 18.0167V7.05C3.14286 6.84225 3.22564 6.643 3.37299 6.4961C3.52034 6.3492 3.72019 6.26667 3.92857 6.26667C4.13696 6.26667 4.33681 6.3492 4.48416 6.4961C4.63151 6.643 4.71429 6.84225 4.71429 7.05V18.0167C4.71429 18.2244 4.79707 18.4237 4.94442 18.5706C5.09177 18.7175 5.29162 18.8 5.5 18.8C5.70838 18.8 5.90823 18.7175 6.05558 18.5706C6.20293 18.4237 6.28571 18.2244 6.28571 18.0167V3.91667C6.28571 3.60806 6.22475 3.30248 6.10629 3.01736C5.98783 2.73225 5.8142 2.47318 5.59532 2.25497C5.37644 2.03675 5.11659 1.86365 4.83061 1.74555C4.54463 1.62745 4.23812 1.56667 3.92857 1.56667C3.61903 1.56667 3.31251 1.62745 3.02653 1.74555C2.74055 1.86365 2.4807 2.03675 2.26182 2.25497C2.04294 2.47318 1.86931 2.73225 1.75086 3.01736C1.6324 3.30248 1.57143 3.60806 1.57143 3.91667V18.0167C1.57143 19.0554 1.98533 20.0517 2.72208 20.7862C3.45883 21.5207 4.45808 21.9333 5.5 21.9333C6.54192 21.9333 7.54117 21.5207 8.27792 20.7862C9.01467 20.0517 9.42857 19.0554 9.42857 18.0167V7.05C9.42857 6.84225 9.51135 6.643 9.6587 6.4961C9.80605 6.3492 10.0059 6.26667 10.2143 6.26667C10.4227 6.26667 10.6225 6.3492 10.7699 6.4961C10.9172 6.643 11 6.84225 11 7.05V18.0167C11 19.4709 10.4205 20.8656 9.38909 21.894C8.35764 22.9223 6.95869 23.5 5.5 23.5C4.04131 23.5 2.64236 22.9223 1.61091 21.894C0.579463 20.8656 0 19.4709 0 18.0167V3.91667Z" fill="#AAAAAA"/>
</svg>
