<svg xmlns="http://www.w3.org/2000/svg" width="114.651" height="90.136" viewBox="0 0 114.651 90.136">
  <g id="Group_138" data-name="Group 138" transform="translate(-1001.5 -8.454)">
    <path id="Path_120" data-name="Path 120" d="M1002,96.424V84.881a3.067,3.067,0,0,1,3.154-1.554c1.2.082,2.4.017,3.683.017v-1.6q0-25.3,0-50.607c0-2.442.647-3.089,3.086-3.089h47.365c0-2.65,0-5.192,0-7.734,0-3.992,2.186-6.19,6.157-6.2.905,0,1.811,0,2.763,0,0-.523,0-.854,0-1.186.014-2.1.42-2.649,2.474-3.191a21.6,21.6,0,0,1,16.019,1.812,1.789,1.789,0,0,0,1.909-.017,21.589,21.589,0,0,1,16.342-1.689c1.6.453,2.069,1.066,2.092,2.675.007.5,0,1.008,0,1.459a2.051,2.051,0,0,0,.37.118c.481.011.964.046,1.442.014,3.369-.228,5.715,1.107,6.793,4.4V26.5c-.905,1.286-1.887,1.7-3.067,1.31-1.027-.344-1.4-1.064-1.406-2.708q0-2.552,0-5.105c0-.637-.105-1.264-.87-1.314-1.05-.069-2.108-.017-3.261-.017v1.354q0,5.66,0,11.32c0,3.33.016,6.659-.009,9.989a2.235,2.235,0,0,1-3.072,2.257,5.86,5.86,0,0,1-.718-.29,23.641,23.641,0,0,0-14.428-1.525,6.321,6.321,0,0,1-2.4-.007,23.669,23.669,0,0,0-14.325,1.5c-2.461,1.065-3.888.139-3.889-2.534q0-10.377,0-20.754V18.637c-1.036,0-1.885,0-2.734,0-1.523.009-1.694.18-1.695,1.75q0,12.818,0,25.637c0,.353.032.706.048,1.039h47.347c0-.621,0-1.168,0-1.716,0-.592-.017-1.185.011-1.776A2.026,2.026,0,0,1,1113.7,41.5a7.057,7.057,0,0,1,1.949,1.431v7.1a2.908,2.908,0,0,1-3,1.6c-3.4-.075-6.8-.026-10.206-.022-.388,0-.775.033-1.131.049V83.235a1.242,1.242,0,0,0,.277.09c1.257.01,2.514.01,3.771.022,1.866.017,2.713.853,2.72,2.715.011,3.032.006,6.065,0,9.1,0,2.16-.757,2.914-2.956,2.914q-50.089,0-100.178.018A2.834,2.834,0,0,1,1002,96.424Zm57.289-54.543h-36.377V83.262h64.582V51.6h-1.379q-12.038,0-24.076,0c-1.954,0-2.741-.8-2.748-2.774C1059.283,46.539,1059.289,44.251,1059.289,41.881Zm44.257,46.031h-97v5.572h97Zm-85.212-4.622V81.772q0-20.7,0-41.394c0-2.377.662-3.039,3.022-3.039q18.256,0,36.511,0h1.351V32.6h-45.847V83.29Zm84.174-45.1V13.9a17.356,17.356,0,0,0-11.777,1.534,1.394,1.394,0,0,0-.852,1.458c.031,6.358.017,12.715.02,19.073,0,.321.036.642.061,1.054A29.322,29.322,0,0,1,1102.508,38.19Zm-17.089-1.28V35.819c0-6.283-.018-12.566.021-18.848a1.526,1.526,0,0,0-1.012-1.591,18.088,18.088,0,0,0-10.657-1.742c-.83.114-1.061.458-1.058,1.284.033,7.355.019,14.709.019,22.064V38c2.19-.384,4.206-.88,6.25-1.055C1081.065,36.771,1083.175,36.91,1085.418,36.91Zm6.739,14.721V83.263h4.523V51.631Z" fill="#fff" stroke="rgba(0,0,0,0)" stroke-width="1"/>
    <path id="Path_121" data-name="Path 121" d="M1498.328,117.677c-.174.226-.34.458-.524.676a2.172,2.172,0,0,1-3.3.168,2.219,2.219,0,1,1,3.411-2.812c.148.205.278.424.416.637Z" transform="translate(-382.677 -82.295)" fill="#fff" stroke="rgba(0,0,0,0)" stroke-width="1"/>
    <path id="Path_122" data-name="Path 122" d="M1137.988,263.732q8.209,0,16.418,0c1.4,0,2.179.544,2.443,1.621a2.2,2.2,0,0,1-2.217,2.85c-2.4.037-4.807.012-7.211.012q-12.979,0-25.958,0c-1.712,0-2.6-.842-2.546-2.358a2.042,2.042,0,0,1,2.209-2.11c2.144-.036,4.289-.015,6.434-.015Q1132.774,263.73,1137.988,263.732Z" transform="translate(-90.963 -198.217)" fill="#fff" stroke="rgba(0,0,0,0)" stroke-width="1"/>
    <path id="Path_123" data-name="Path 123" d="M1136.695,232.7c-5.026,0-10.051.008-15.077,0-1.853,0-2.73-.785-2.7-2.321a2.074,2.074,0,0,1,1.833-2.15,4.6,4.6,0,0,1,.773-.046q15.243,0,30.485,0a2.435,2.435,0,0,1,2.25.918,2.231,2.231,0,0,1-1.717,3.563c-2.213.1-4.433.041-6.65.044Q1141.3,232.707,1136.695,232.7Z" transform="translate(-90.967 -170.559)" fill="#fff" stroke="rgba(0,0,0,0)" stroke-width="1"/>
    <path id="Path_124" data-name="Path 124" d="M1133.193,303.528c-4.026,0-8.053.016-12.079-.009a2.239,2.239,0,1,1,.174-4.463q7.536-.013,15.071,0c2.955,0,5.91-.021,8.865.01a2.2,2.2,0,0,1,2.215,2.93c-.28,1.023-1.037,1.53-2.389,1.534C1141.1,303.536,1137.146,303.529,1133.193,303.528Z" transform="translate(-90.873 -225.696)" fill="#fff" stroke="rgba(0,0,0,0)" stroke-width="1"/>
    <path id="Path_125" data-name="Path 125" d="M1130.481,197.379c-3.034,0-6.067.006-9.1,0-1.588,0-2.449-.79-2.459-2.207s.842-2.249,2.412-2.251q9.267-.014,18.534,0c1.586,0,2.45.792,2.463,2.2.013,1.449-.874,2.252-2.526,2.256C1136.7,197.384,1133.588,197.379,1130.481,197.379Z" transform="translate(-90.967 -143.122)" fill="#fff" stroke="rgba(0,0,0,0)" stroke-width="1"/>
    <path id="Path_126" data-name="Path 126" d="M1272.5,303.568a2.261,2.261,0,0,1-2.243-2.246,2.315,2.315,0,0,1,2.3-2.213,2.247,2.247,0,0,1,2.16,2.214A2.2,2.2,0,0,1,1272.5,303.568Z" transform="translate(-208.715 -225.745)" fill="#fff" stroke="rgba(0,0,0,0)" stroke-width="1"/>
  </g>
</svg>
