<svg xmlns="http://www.w3.org/2000/svg" width="120.656" height="120.658" viewBox="0 0 120.656 120.658">
  <g id="Group_134" data-name="Group 134" transform="translate(207.501 -184.75)">
    <g id="Group_116" data-name="Group 116" transform="translate(-207.003 185.25)">
      <path id="Path_96" data-name="Path 96" d="M-87.345,216.8c-6.244,6.3-12.466,12.616-18.755,18.868a3.74,3.74,0,0,0-1.191,2.952q.056,17.932.018,35.864c0,4.195-2.443,7.209-6.346,7.885a11,11,0,0,1-1.862.1q-13.9.009-27.8,0h-1.392c.6,2.379,1.154,4.639,1.774,6.881a1.107,1.107,0,0,0,.81.579c4.662.457,7.336,3.338,7.362,7.994.008,1.4.019,2.8,0,4.205a2.476,2.476,0,0,1-2.73,2.77q-19.684.016-39.369,0a2.441,2.441,0,0,1-2.727-2.424,42.9,42.9,0,0,1,.044-5.719,7.351,7.351,0,0,1,7.308-6.815c.188-.009.375-.033.621-.056l1.972-7.416h-1.506q-13.9,0-27.8,0c-4.978,0-8.074-3.107-8.075-8.1q0-29.322,0-58.645c0-4.914,3.116-8.037,8.015-8.039q14.428-.006,28.855.019a2.727,2.727,0,0,0,2.127-.9q10.1-10.141,20.251-20.226a15.931,15.931,0,0,1,1.748-1.327h1.169a18.375,18.375,0,0,1,1.82,1.413c3.475,3.444,6.922,6.917,10.381,10.378.29.291.595.568.846.807l12.894-12.6h1.636c.744.667,1.519,1.3,2.228,2.007,4.971,4.931,9.951,9.853,14.884,14.823,4.3,4.331,8.537,8.72,12.8,13.084Zm-114.691,50.644h89.743V266.23q0-25.123,0-50.246c0-2.555-.786-3.331-3.367-3.331q-41.482,0-82.964,0c-2.589,0-3.41.829-3.41,3.44q0,25.006,0,50.012Zm.157,5.108c-.607,3.791.425,5,3.879,4.988q41.058-.1,82.117-.04a9.264,9.264,0,0,0,1.625-.106,2.1,2.1,0,0,0,1.842-1.726,20.725,20.725,0,0,0,.035-3.116Zm101.549-49.827c-2.566-4.806-2.625-8.271-.284-13.092a1.265,1.265,0,0,0-.239-1.128c-3.191-3.251-6.437-6.447-9.626-9.7a1.084,1.084,0,0,0-1.578-.171,11.229,11.229,0,0,1-7.992,1.348,48.208,48.208,0,0,1-4.745-1.515l-9.258,9.217H-133q8.761,0,17.521,0c5.132,0,8.2,3.072,8.209,8.217.007,4.166,0,8.332,0,12.5,0,.388.035.775.058,1.248ZM-139.7,299.884c0-.444,0-.753,0-1.063.019-3.261-.618-3.905-3.859-3.905h-24.3c-1.363,0-2.726-.019-4.089.01a2.306,2.306,0,0,0-2.475,1.738,16.179,16.179,0,0,0-.044,3.22Zm1.066-101.648a2.088,2.088,0,0,0-.292.119,12.256,12.256,0,0,1-12.768.153c-.611-.336-.892-.125-1.278.264q-3.665,3.687-7.356,7.348c-.452.448-.968.831-1.551,1.326a3.012,3.012,0,0,0,.526.226q9.638.01,19.275,0a1.3,1.3,0,0,0,.84-.265c1.993-1.95,3.958-3.929,5.878-5.848Zm-25.747,84.235-1.966,7.414h18.393c-.618-2.335-1.193-4.592-1.837-6.83a1.057,1.057,0,0,0-.809-.559C-155.149,282.461-159.7,282.472-164.376,282.472Zm49.218-87.848-2.624-2.9-3.089,2.865A7.249,7.249,0,0,0-115.158,194.624Zm18.5,24.263,3.005-2.824-2.984-3.115A7.283,7.283,0,0,0-96.663,218.886Zm-51.886-24.46a6.913,6.913,0,0,0,6.072.093l-2.908-3.089Z" transform="translate(207.003 -185.25)" fill="#fff" stroke="rgba(0,0,0,0)" stroke-width="1"/>
      <path id="Path_99" data-name="Path 99" d="M-74.18,311.734a22.429,22.429,0,0,1-22.408,22.443,22.5,22.5,0,0,1-22.449-22.667,22.444,22.444,0,0,1,22.679-22.179A22.355,22.355,0,0,1-74.18,311.734Zm-39.832-.017a17.38,17.38,0,0,0,17.435,17.45,17.426,17.426,0,0,0,17.436-17.23,17.466,17.466,0,0,0-17.28-17.645A17.414,17.414,0,0,0-114.012,311.717Z" transform="translate(146.448 -256.899)" fill="#fff" stroke="rgba(0,0,0,0)" stroke-width="1"/>
      <path id="Path_100" data-name="Path 100" d="M-56.092,323.449c0,2.2-.83,3.246-2.258,3.333-1.476.09-2.473-.864-2.7-2.587a2.452,2.452,0,0,0-2.667-2.347A2.4,2.4,0,0,0-66,324.326a2.467,2.467,0,0,0,2.565,2.465,7.257,7.257,0,0,1,6.669,4.518,7.158,7.158,0,0,1-1.054,7.677,6.256,6.256,0,0,1-1.349,1.279c-.957.668-1.992,1.128-2.409,2.446a1.959,1.959,0,0,1-2.276,1.045,2.606,2.606,0,0,1-2.072-1.681,2.6,2.6,0,0,0-.956-1.13,7.687,7.687,0,0,1-4.112-5.893c-.3-2.34,1.511-3.916,3.459-3.054A2.659,2.659,0,0,1-66,334.313a2.486,2.486,0,0,0,2.582,2.448,2.524,2.524,0,0,0,2.368-2.444,2.554,2.554,0,0,0-2.622-2.565c-4.754-.461-7.7-3.866-7.193-8.4a7.341,7.341,0,0,1,3.854-5.667,3.255,3.255,0,0,0,1.121-1.275,2.519,2.519,0,0,1,2.247-1.591,2.164,2.164,0,0,1,2.358,1.527,2.391,2.391,0,0,0,1.325,1.446A7.26,7.26,0,0,1-56.092,323.449Z" transform="translate(113.396 -274.442)" fill="#fff" stroke="rgba(0,0,0,0)" stroke-width="1"/>
    </g>
  </g>
</svg>
