<svg xmlns="http://www.w3.org/2000/svg" xmlns:xlink="http://www.w3.org/1999/xlink" width="25.581" height="25.575" viewBox="0 0 25.581 25.575">
  <defs>
    <linearGradient id="linear-gradient" x1="0.5" y1="-0.003" x2="0.5" y2="1.003" gradientUnits="objectBoundingBox">
      <stop offset="0" stop-color="#9de6a0"/>
      <stop offset="1" stop-color="#004a9e"/>
    </linearGradient>
  </defs>
  <path id="Icon_awesome-instagram" data-name="Icon awesome-instagram" d="M12.788,8.468a6.557,6.557,0,1,0,6.557,6.557A6.547,6.547,0,0,0,12.788,8.468Zm0,10.82a4.263,4.263,0,1,1,4.263-4.263,4.271,4.271,0,0,1-4.263,4.263ZM21.143,8.2A1.529,1.529,0,1,1,19.613,6.67,1.526,1.526,0,0,1,21.143,8.2Zm4.343,1.552A7.569,7.569,0,0,0,23.42,4.393a7.619,7.619,0,0,0-5.359-2.066c-2.112-.12-8.44-.12-10.552,0A7.608,7.608,0,0,0,2.15,4.388,7.594,7.594,0,0,0,.085,9.746c-.12,2.112-.12,8.44,0,10.552A7.569,7.569,0,0,0,2.15,25.657a7.628,7.628,0,0,0,5.359,2.066c2.112.12,8.44.12,10.552,0a7.569,7.569,0,0,0,5.359-2.066A7.619,7.619,0,0,0,25.486,20.3c.12-2.112.12-8.435,0-10.546ZM22.758,22.564A4.316,4.316,0,0,1,20.327,25c-1.684.668-5.678.514-7.539.514S6.927,25.657,5.249,25a4.316,4.316,0,0,1-2.431-2.431C2.15,20.88,2.3,16.886,2.3,15.025s-.148-5.861.514-7.539A4.316,4.316,0,0,1,5.249,5.055c1.684-.668,5.678-.514,7.539-.514s5.861-.148,7.539.514a4.316,4.316,0,0,1,2.431,2.431c.668,1.684.514,5.678.514,7.539S23.426,20.886,22.758,22.564Z" transform="translate(0.005 -2.238)" fill="url(#linear-gradient)"/>
</svg>
