<svg xmlns="http://www.w3.org/2000/svg" xmlns:xlink="http://www.w3.org/1999/xlink" width="298.746" height="48.776" viewBox="0 0 298.746 48.776">
  <defs>
    <linearGradient id="linear-gradient" x1="0.5" y1="0.003" x2="0.5" y2="0.978" gradientUnits="objectBoundingBox">
      <stop offset="0" stop-color="#9de6a0"/>
      <stop offset="1" stop-color="#004a9e"/>
    </linearGradient>
    <linearGradient id="linear-gradient-2" x1="0.5" y1="-0.004" x2="0.5" y2="1.004" xlink:href="#linear-gradient"/>
    <linearGradient id="linear-gradient-3" x1="0.5" y1="-0.003" x2="0.5" y2="1.003" xlink:href="#linear-gradient"/>
    <linearGradient id="linear-gradient-4" x1="0.5" y1="1.003" x2="0.5" y2="-0.003" gradientUnits="objectBoundingBox">
      <stop offset="0" stop-color="#004a9e"/>
      <stop offset="1" stop-color="#9de6a0"/>
    </linearGradient>
  </defs>
  <g id="Group_47" data-name="Group 47" transform="translate(133.735 -299.794)">
    <path id="Path_1" data-name="Path 1" d="M204.509,321.909a2.247,2.247,0,1,1,2.21,2.21,2.237,2.237,0,0,1-2.21-2.21Zm2.21-2.859a2.534,2.534,0,0,0-1.161.256,2.809,2.809,0,0,0-1.4,1.433,2.864,2.864,0,0,0,.287,2.773,1.985,1.985,0,0,0,.336.384,2.825,2.825,0,0,0,4.805-2.068,2.719,2.719,0,0,0-.852-1.981,2.76,2.76,0,0,0-1.39-.749l-.56-.062C206.7,319.037,206.738,319.046,206.719,319.05Z" transform="translate(-44.576 -2.54)" fill-rule="evenodd" fill="url(#linear-gradient)"/>
    <path id="Path_2" data-name="Path 2" d="M206.7,321.84h-.168V321.1c.528,0,.745-.071.745.409,0,.309-.269.336-.576.336Zm.325-1.321H205.76V323.5h.769v-1.129c.459,0,.536.013.753.449a5.964,5.964,0,0,1,.329.681h.817a4.377,4.377,0,0,0-.724-1.3.7.7,0,0,1-.165-.122.747.747,0,0,0,.375-.25.83.83,0,0,0-.154-1.125A1.38,1.38,0,0,0,207.022,320.519Z" transform="translate(-44.819 -2.736)" fill-rule="evenodd" fill="url(#linear-gradient-2)"/>
    <path id="Path_3" data-name="Path 3" d="M-5.937,351.343H-.349V327.72H-5.5v1.607a7.277,7.277,0,0,0-5.22-2.008c-5.119,0-8.666,3.949-8.666,9.235s3.681,9.234,8.8,9.234a7.262,7.262,0,0,0,4.651-1.539v7.093Zm-49.62-5.989h5.487L-57.7,322.1h-6.826l-7.662,23.254h5.52l1.439-4.483H-57l1.438,4.483Zm-8.231-9.034,2.677-8.3,2.643,8.3Zm15.358,9.034h5.588V320.895H-48.43v24.459Zm17.667.435c5.654,0,9.669-3.981,9.669-9.234,0-5.287-4.015-9.235-9.669-9.235-5.621,0-9.636,3.949-9.636,9.235,0,5.253,4.015,9.234,9.636,9.234Zm.033-4.952a3.982,3.982,0,0,1-4.048-4.283,3.947,3.947,0,0,1,4.048-4.284,3.912,3.912,0,0,1,4.015,4.25c0,2.543-1.607,4.316-4.015,4.316Zm20.946.034a4.049,4.049,0,0,1-4.049-4.316,4.059,4.059,0,0,1,4.049-4.35,4.01,4.01,0,0,1,4.081,4.35,3.982,3.982,0,0,1-4.081,4.316ZM15.979,327.72v1.841a6.864,6.864,0,0,0-5.086-1.907,8.477,8.477,0,0,0-8.8,8.9c0,5.286,3.681,9.234,8.8,9.234a6.7,6.7,0,0,0,5.086-2.041v1.606h5.152V327.72ZM11.7,340.871a4.03,4.03,0,0,1-4.049-4.316A4.078,4.078,0,0,1,11.7,332.2a4.341,4.341,0,0,1,0,8.667ZM38.263,322.1,32.81,338.729,27.356,322.1H21.534L29.4,345.354h6.893l7.8-23.254Zm9.771,16.093a4.109,4.109,0,0,0,4.249,3.045,3.7,3.7,0,0,0,3.647-1.84l4.183,2.778c-1.406,1.84-3.614,3.613-8,3.613-5.822,0-9.5-3.981-9.5-9.234a9.224,9.224,0,0,1,9.168-9.268,8.948,8.948,0,0,1,9.168,8.9,14.142,14.142,0,0,1-.134,2.008Zm-.068-3.48h7.8a3.964,3.964,0,0,0-7.8,0Zm25.7-7.427a7.4,7.4,0,0,0-5.086,1.84V327.72H63.325v17.634h5.588V335.048a2.905,2.905,0,0,1,3.045-2.81,2.835,2.835,0,0,1,2.977,3.011v10.105h5.588V334.145a6.5,6.5,0,0,0-6.859-6.859Zm18.169,18.068h3.011V340.5H93a2.3,2.3,0,0,1-2.476-2.61v-5.42h4.216V327.72H90.729v-4.684H85.308v2.71c0,1.305-.636,1.974-1.874,1.974H82.029v4.752h2.944v6.09c0,4.082,2.309,6.792,6.86,6.792Zm16.428-17.634v10.273a2.895,2.895,0,0,1-5.789,0V327.72H96.885v11.009c0,3.981,2.275,7.06,6.792,7.06a7.14,7.14,0,0,0,4.919-1.907v1.472h5.219V327.72Zm14.02,1.507V327.72h-5.253v17.634h5.587v-9.436c0-2.309,1.607-3.413,4.551-3.413v-5.219a6.956,6.956,0,0,0-4.885,1.941Zm11.108,8.966h12.782a14.146,14.146,0,0,0,.134-2.008,8.948,8.948,0,0,0-9.168-8.9,9.225,9.225,0,0,0-9.169,9.268c0,5.253,3.68,9.234,9.5,9.234,4.383,0,6.591-1.773,8-3.613l-4.182-2.778a3.7,3.7,0,0,1-3.647,1.84,4.11,4.11,0,0,1-4.25-3.045Zm-.067-3.48a3.964,3.964,0,0,1,7.8,0Zm21.917,11.075c4.651,0,7.595-2.208,7.595-5.855,0-6.491-9.2-4.885-9.2-7.394,0-.736.569-1.171,1.706-1.171a2.384,2.384,0,0,1,2.41,1.673l4.617-1.806c-.7-2.476-3.312-3.916-6.926-3.916-4.45,0-7.261,2.074-7.261,5.487,0,6.057,9.2,4.717,9.2,7.495,0,.8-.67,1.3-1.941,1.3a3.277,3.277,0,0,1-3.447-2.309l-4.617,1.774C148.413,344.149,151.257,345.789,155.239,345.789Z" transform="translate(-8.125 -2.786)" fill-rule="evenodd" fill="url(#linear-gradient-3)"/>
    <path id="Path_4" data-name="Path 4" d="M-133.735,329.05l6.507-6.507,13.014,13.014,13.014-13.014,6.506,6.507-19.521,19.52-6.506-6.506-13.014-13.014Zm16.243-3.229,13.014-13.014,13.014,13.014,6.506-6.506-19.52-19.521-6.507,6.507L-124,319.315Z" fill-rule="evenodd" fill="url(#linear-gradient-4)"/>
  </g>
</svg>
